<?xml version="1.0" encoding="UTF-8"?>
<svg version="1.1" xmlns="http://www.w3.org/2000/svg" width="250" height="121">
<path d="M0 0 C2.42163086 1.09472656 2.42163086 1.09472656 4.96484375 2.640625 C6.39558228 3.49575684 6.39558228 3.49575684 7.85522461 4.36816406 C8.87237549 4.98916992 9.88952637 5.61017578 10.9375 6.25 C13.1025718 7.54433819 15.26927516 8.83595063 17.4375 10.125 C18.53320312 10.77726563 19.62890625 11.42953125 20.7578125 12.1015625 C25.59054559 14.93133151 30.5054297 17.59834459 35.4375 20.25 C42.29740126 23.95133676 49.09549062 27.73201546 55.8125 31.6875 C56.53042725 32.10999023 57.24835449 32.53248047 57.98803711 32.96777344 C62.86035126 35.86035126 62.86035126 35.86035126 64 37 C64.375 39.8125 64.375 39.8125 64 43 C59.8565324 46.99340237 54.70649817 49.52460873 49.6875 52.25 C48.85154297 52.70890625 48.01558594 53.1678125 47.15429688 53.640625 C45.10516812 54.76471849 43.05373835 55.88435756 41 57 C41.48355957 57.28198242 41.96711914 57.56396484 42.46533203 57.85449219 C44.68633625 59.15109566 46.90567402 60.45052623 49.125 61.75 C49.88554688 62.1934375 50.64609375 62.636875 51.4296875 63.09375 C53.6281052 64.38247762 55.81677345 65.68572061 58 67 C58.92534546 67.55204102 58.92534546 67.55204102 59.86938477 68.11523438 C61.29394046 69.0046552 62.65469759 69.99471907 64 71 C64.6875 74 64.6875 74 64 77 C60.84191892 79.84644665 57.49453925 81.98449144 53.78125 84.03125 C52.77666748 84.58868896 51.77208496 85.14612793 50.73706055 85.72045898 C49.66883057 86.30770752 48.60060059 86.89495605 47.5 87.5 C45.2456727 88.75054337 42.99177341 90.00185858 40.73828125 91.25390625 C39.04372803 92.19387451 39.04372803 92.19387451 37.31494141 93.15283203 C32.41969018 95.88058802 27.55138583 98.65431116 22.6875 101.4375 C21.82495605 101.92831055 20.96241211 102.41912109 20.07373047 102.92480469 C16.44032506 104.99800388 12.826038 107.08516851 9.27734375 109.30078125 C-0.31950264 115.23489073 -0.31950264 115.23489073 -6 114 C-8.25870108 110.61194839 -8.29259413 109.22649259 -8.4140625 105.23828125 C-8.45273437 104.12001953 -8.49140625 103.00175781 -8.53125 101.84960938 C-8.5621875 100.68236328 -8.593125 99.51511719 -8.625 98.3125 C-8.66367187 97.13365234 -8.70234375 95.95480469 -8.7421875 94.74023438 C-8.83654391 91.82698023 -8.92213161 88.91373393 -9 86 C-10.00160156 86.66128906 -11.00320312 87.32257813 -12.03515625 88.00390625 C-13.37696117 88.85778211 -14.71944558 89.71059083 -16.0625 90.5625 C-16.71927734 91.00013672 -17.37605469 91.43777344 -18.05273438 91.88867188 C-21.74077956 94.19597108 -23.44772694 95.02248579 -27.93359375 94.83984375 C-31 94 -31 94 -32 93 C-32.1048724 90.80217939 -32.13857031 88.60094585 -32.14526367 86.40063477 C-32.15030159 85.36647934 -32.15030159 85.36647934 -32.15544128 84.31143188 C-32.1649777 82.02140525 -32.16689574 79.73145153 -32.16796875 77.44140625 C-32.17117949 75.85578887 -32.17454342 74.2701718 -32.17805481 72.68455505 C-32.18405283 69.35634677 -32.18589402 66.02816448 -32.18530273 62.69995117 C-32.18520108 58.42796629 -32.19885374 54.15614749 -32.21607494 49.884202 C-32.2271748 46.60803965 -32.22922257 43.33191769 -32.22869301 40.05573845 C-32.22987616 38.4804216 -32.23431656 36.90510381 -32.24202538 35.32980537 C-32.2517848 33.12933738 -32.2489635 30.92923318 -32.24291992 28.72875977 C-32.24505745 26.84798485 -32.24505745 26.84798485 -32.24723816 24.92921448 C-32 22 -32 22 -30 20 C-24.17982529 19.09114389 -20.42491604 21.60963465 -15.625 24.5 C-14.88894531 24.92925781 -14.15289063 25.35851562 -13.39453125 25.80078125 C-11.58955456 26.85563776 -9.79381282 27.92626881 -8 29 C-8.01571045 28.22809326 -8.0314209 27.45618652 -8.04760742 26.66088867 C-8.10989607 23.16983338 -8.14897173 19.67889491 -8.1875 16.1875 C-8.21263672 14.97255859 -8.23777344 13.75761719 -8.26367188 12.50585938 C-8.27333984 11.34248047 -8.28300781 10.17910156 -8.29296875 8.98046875 C-8.3086792 7.90692139 -8.32438965 6.83337402 -8.34057617 5.72729492 C-8 3 -8 3 -6.79418945 1.1262207 C-4.31677116 -0.42886579 -2.88752001 -0.38812053 0 0 Z " fill="#F95F53" transform="translate(38,3)"/>
<path d="M0 0 C16.38643068 0 16.38643068 0 21 4 C23.79020065 8.39667981 24.52553607 12.02738156 23.65234375 17.0703125 C22.33524272 20.96640775 19.70574676 24.14712662 16 26 C13.28024285 26.07187519 10.59325368 26.0927862 7.875 26.0625 C5.27625 26.041875 2.6775 26.02125 0 26 C0 17.42 0 8.84 0 0 Z M7 6 C7 10.62 7 15.24 7 20 C12.47181373 20.47058824 12.47181373 20.47058824 14.875 19 C16.68575759 15.78087539 16.80656386 12.58472828 16 9 C12.80434964 6.15942191 11.3252957 6 7 6 Z " fill="#000000" transform="translate(220,28)"/>
<path d="M0 0 C2.31 0 4.62 0 7 0 C7 3.3 7 6.6 7 10 C9.97 10 12.94 10 16 10 C16 6.7 16 3.4 16 0 C18.31 0 20.62 0 23 0 C23 8.58 23 17.16 23 26 C20.69 26 18.38 26 16 26 C16 22.7 16 19.4 16 16 C13.03 16 10.06 16 7 16 C7 19.3 7 22.6 7 26 C4.69 26 2.38 26 0 26 C0 17.42 0 8.84 0 0 Z " fill="#000000" transform="translate(187,66)"/>
<path d="M0 0 C2.31 0 4.62 0 7 0 C7 3.3 7 6.6 7 10 C9.97 10 12.94 10 16 10 C16 6.7 16 3.4 16 0 C18.31 0 20.62 0 23 0 C23 8.58 23 17.16 23 26 C20.69 26 18.38 26 16 26 C16 22.7 16 19.4 16 16 C13.03 16 10.06 16 7 16 C7 19.3 7 22.6 7 26 C4.69 26 2.38 26 0 26 C0 17.42 0 8.84 0 0 Z " fill="#000000" transform="translate(140,28)"/>
<path d="M0 0 C2.64 0 5.28 0 8 0 C9.5053109 3.95633425 11.00334593 7.91538367 12.5 11.875 C12.92925781 13.00292969 13.35851562 14.13085938 13.80078125 15.29296875 C14.40986328 16.90751953 14.40986328 16.90751953 15.03125 18.5546875 C15.40830078 19.54968262 15.78535156 20.54467773 16.17382812 21.56982422 C17 24 17 24 17 26 C14.36 26 11.72 26 9 26 C8.67 25.01 8.34 24.02 8 23 C5.03 22.67 2.06 22.34 -1 22 C-1.33 23.32 -1.66 24.64 -2 26 C-4.31 26 -6.62 26 -9 26 C-6.56696874 17.12157015 -3.29163506 8.58594775 0 0 Z M3 10 C2.67 11.98 2.34 13.96 2 16 C3.32 16 4.64 16 6 16 C5.34 14.02 4.68 12.04 4 10 C3.67 10 3.34 10 3 10 Z " fill="#000000" transform="translate(201,28)"/>
<path d="M0 0 C3.75212276 2.01502889 5.63644095 3.45466142 8 7 C8 7.99 8 8.98 8 10 C5.36 10 2.72 10 0 10 C-0.33 9.34 -0.66 8.68 -1 8 C-3.31 8 -5.62 8 -8 8 C-9.50662097 11.01324195 -9.17770373 13.68286377 -9 17 C-7.17296773 19.2491908 -7.17296773 19.2491908 -4.5 19.25 C-1.82703227 19.2491908 -1.82703227 19.2491908 0 17 C2.68839385 16.73008094 5.29141936 16.91262643 8 17 C7.181975 20.06759375 6.51513294 22.42542865 4.375 24.8125 C-0.60816573 27.30408287 -4.55023626 27.43492912 -9.75 25.875 C-14.13825961 23.34331177 -16.29875292 21.05699144 -17.9375 16.25 C-18.02400106 11.75194479 -16.94689466 8.04477298 -15 4 C-10.86431421 -0.13568579 -5.66387462 -0.79230004 0 0 Z " fill="#000000" transform="translate(176,66)"/>
<path d="M0 0 C1.48831242 0.00667405 2.97660807 0.01863442 4.46484375 0.03515625 C5.22345703 0.03966797 5.98207031 0.04417969 6.76367188 0.04882812 C8.64326246 0.06064945 10.52281274 0.07858547 12.40234375 0.09765625 C12.40234375 2.07765625 12.40234375 4.05765625 12.40234375 6.09765625 C9.10234375 6.09765625 5.80234375 6.09765625 2.40234375 6.09765625 C2.40234375 7.41765625 2.40234375 8.73765625 2.40234375 10.09765625 C5.37234375 10.09765625 8.34234375 10.09765625 11.40234375 10.09765625 C11.40234375 12.07765625 11.40234375 14.05765625 11.40234375 16.09765625 C8.43234375 16.09765625 5.46234375 16.09765625 2.40234375 16.09765625 C2.40234375 17.74765625 2.40234375 19.39765625 2.40234375 21.09765625 C5.70234375 21.09765625 9.00234375 21.09765625 12.40234375 21.09765625 C12.40234375 22.74765625 12.40234375 24.39765625 12.40234375 26.09765625 C6.79234375 26.09765625 1.18234375 26.09765625 -4.59765625 26.09765625 C-4.62448075 21.95178043 -4.6444094 17.80607587 -4.66015625 13.66015625 C-4.66853516 12.47615234 -4.67691406 11.29214844 -4.68554688 10.07226562 C-4.68876953 8.94755859 -4.69199219 7.82285156 -4.6953125 6.6640625 C-4.70054932 5.62193604 -4.70578613 4.57980957 -4.71118164 3.50610352 C-4.52813894 -0.37715725 -4.04822889 0.10988678 0 0 Z " fill="#000000" transform="translate(170.59765625,27.90234375)"/>
<path d="M0 0 C5.28 0 10.56 0 16 0 C16 1.98 16 3.96 16 6 C13.03 6 10.06 6 7 6 C7 7.32 7 8.64 7 10 C9.64 10 12.28 10 15 10 C15 11.98 15 13.96 15 16 C12.36 16 9.72 16 7 16 C7 17.65 7 19.3 7 21 C9.97 21 12.94 21 16 21 C16 22.65 16 24.3 16 26 C10.72 26 5.44 26 0 26 C0 17.42 0 8.84 0 0 Z " fill="#000000" transform="translate(140,66)"/>
<path d="M0 0 C0.83265381 0.00523682 1.66530762 0.01047363 2.52319336 0.01586914 C3.42231445 0.0190918 4.32143555 0.02231445 5.24780273 0.02563477 C6.66609375 0.03820312 6.66609375 0.03820312 8.11303711 0.05102539 C9.06243164 0.05553711 10.01182617 0.06004883 10.98999023 0.06469727 C13.34356776 0.07652429 15.69702188 0.09300514 18.05053711 0.11352539 C18.05053711 2.09352539 18.05053711 4.07352539 18.05053711 6.11352539 C15.74053711 6.11352539 13.43053711 6.11352539 11.05053711 6.11352539 C11.05053711 12.71352539 11.05053711 19.31352539 11.05053711 26.11352539 C8.74053711 26.11352539 6.43053711 26.11352539 4.05053711 26.11352539 C4.05053711 19.51352539 4.05053711 12.91352539 4.05053711 6.11352539 C1.74053711 6.11352539 -0.56946289 6.11352539 -2.94946289 6.11352539 C-2.99218389 4.44740634 -2.99010121 2.77969654 -2.94946289 1.11352539 C-1.94946289 0.11352539 -1.94946289 0.11352539 0 0 Z " fill="#000000" transform="translate(119.949462890625,65.886474609375)"/>
<path d="M0 0 C0.83265381 0.00523682 1.66530762 0.01047363 2.52319336 0.01586914 C3.42231445 0.0190918 4.32143555 0.02231445 5.24780273 0.02563477 C6.66609375 0.03820312 6.66609375 0.03820312 8.11303711 0.05102539 C9.06243164 0.05553711 10.01182617 0.06004883 10.98999023 0.06469727 C13.34356776 0.07652429 15.69702188 0.09300514 18.05053711 0.11352539 C18.05053711 2.09352539 18.05053711 4.07352539 18.05053711 6.11352539 C15.74053711 6.11352539 13.43053711 6.11352539 11.05053711 6.11352539 C11.05053711 12.71352539 11.05053711 19.31352539 11.05053711 26.11352539 C8.74053711 26.11352539 6.43053711 26.11352539 4.05053711 26.11352539 C4.05053711 19.51352539 4.05053711 12.91352539 4.05053711 6.11352539 C1.74053711 6.11352539 -0.56946289 6.11352539 -2.94946289 6.11352539 C-2.99218389 4.44740634 -2.99010121 2.77969654 -2.94946289 1.11352539 C-1.94946289 0.11352539 -1.94946289 0.11352539 0 0 Z " fill="#000000" transform="translate(119.949462890625,27.886474609375)"/>
</svg>
