<svg width="256" height="256" viewBox="0 0 120 120" fill="none" xmlns="http://www.w3.org/2000/svg">
  <defs>
    <linearGradient id="brand-gradient" x1="0%" y1="0%" x2="100%" y2="100%">
      <stop offset="0%" stop-color="#3b82f6" />
      <stop offset="100%" stop-color="#7c3aed" />
    </linearGradient>
  </defs>
  <g transform="translate(45, 3)">
    <path d="M0 0 C2.42163086 1.09472656 2.42163086 1.09472656 4.96484375 2.640625 C6.39558228 3.49575684 6.39558228 3.49575684 7.85522461 4.36816406 C8.87237549 4.98916992 9.88952637 5.61017578 10.9375 6.25 C13.1025718 7.54433819 15.26927516 8.83595063 17.4375 10.125 C18.53320312 10.77726563 19.62890625 11.42953125 20.7578125 12.1015625 C25.59054559 14.93133151 30.5054297 17.59834459 35.4375 20.25 C42.29740126 23.95133676 49.09549062 27.73201546 55.8125 31.6875 C56.53042725 32.10999023 57.24835449 32.53248047 57.98803711 32.96777344 C62.86035126 35.86035126 62.86035126 35.86035126 64 37 C64.375 39.8125 64.375 39.8125 64 43 C59.8565324 46.99340237 54.70649817 49.52460873 49.6875 52.25 C48.85154297 52.70890625 48.01558594 53.1678125 47.15429688 53.640625 C45.10516812 54.76471849 43.05373835 55.88435756 41 57 C41.48355957 57.28198242 41.96711914 57.56396484 42.46533203 57.85449219 C44.68633625 59.15109566 46.90567402 60.45052623 49.125 61.75 C49.88554688 62.1934375 50.64609375 62.636875 51.4296875 63.09375 C53.6281052 64.38247762 55.81677345 65.68572061 58 67 C58.92534546 67.55204102 58.92534546 67.55204102 59.86938477 68.11523438 C61.29394046 69.0046552 62.65469759 69.99471907 64 71 C64.6875 74 64.6875 74 64 77 C60.84191892 79.84644665 57.49453925 81.98449144 53.78125 84.03125 C52.77666748 84.58868896 51.77208496 85.14612793 50.73706055 85.72045898 C49.66883057 86.30770752 48.60060059 86.89495605 47.5 87.5 C45.2456727 88.75054337 42.99177341 90.00185858 40.73828125 91.25390625 C39.04372803 92.19387451 39.04372803 92.19387451 37.31494141 93.15283203 C32.41969018 95.88058802 27.55138583 98.65431116 22.6875 101.4375 C21.82495605 101.92831055 20.96241211 102.41912109 20.07373047 102.92480469 C16.44032506 104.99800388 12.826038 107.08516851 9.27734375 109.30078125 C-0.31950264 115.23489073 -0.31950264 115.23489073 -6 114 C-8.25870108 110.61194839 -8.29259413 109.22649259 -8.4140625 105.23828125 C-8.45273437 104.12001953 -8.49140625 103.00175781 -8.53125 101.84960938 C-8.5621875 100.68236328 -8.593125 99.51511719 -8.625 98.3125 C-8.66367187 97.13365234 -8.70234375 95.95480469 -8.7421875 94.74023438 C-8.83654391 91.82698023 -8.92213161 88.91373393 -9 86 C-10.00160156 86.66128906 -11.00320312 87.32257813 -12.03515625 88.00390625 C-13.37696117 88.85778211 -14.71944558 89.71059083 -16.0625 90.5625 C-16.71927734 91.00013672 -17.37605469 91.43777344 -18.05273438 91.88867188 C-21.74077956 94.19597108 -23.44772694 95.02248579 -27.93359375 94.83984375 C-31 94 -31 94 -32 93 C-32.1048724 90.80217939 -32.13857031 88.60094585 -32.14526367 86.40063477 C-32.15030159 85.36647934 -32.15030159 85.36647934 -32.15544128 84.31143188 C-32.1649777 82.02140525 -32.16689574 79.73145153 -32.16796875 77.44140625 C-32.17117949 75.85578887 -32.17454342 74.2701718 -32.17805481 72.68455505 C-32.18405283 69.35634677 -32.18589402 66.02816448 -32.18530273 62.69995117 C-32.18520108 58.42796629 -32.19885374 54.15614749 -32.21607494 49.884202 C-32.2271748 46.60803965 -32.22922257 43.33191769 -32.22869301 40.05573845 C-32.22987616 38.4804216 -32.23431656 36.90510381 -32.24202538 35.32980537 C-32.2517848 33.12933738 -32.2489635 30.92923318 -32.24291992 28.72875977 C-32.24505745 26.84798485 -32.24505745 26.84798485 -32.24723816 24.92921448 C-32 22 -32 22 -30 20 C-24.17982529 19.09114389 -20.42491604 21.60963465 -15.625 24.5 C-14.88894531 24.92925781 -14.15289063 25.35851562 -13.39453125 25.80078125 C-11.58955456 26.85563776 -9.79381282 27.92626881 -8 29 C-8.01571045 28.22809326 -8.0314209 27.45618652 -8.04760742 26.66088867 C-8.10989607 23.16983338 -8.14897173 19.67889491 -8.1875 16.1875 C-8.21263672 14.97255859 -8.23777344 13.75761719 -8.26367188 12.50585938 C-8.27333984 11.34248047 -8.28300781 10.17910156 -8.29296875 8.98046875 C-8.3086792 7.90692139 -8.32438965 6.83337402 -8.34057617 5.72729492 C-8 3 -8 3 -6.79418945 1.1262207 C-4.31677116 -0.42886579 -2.88752001 -0.38812053 0 0 Z" fill="url(#brand-gradient)" />
  </g>
</svg>
